<svg xmlns="http://www.w3.org/2000/svg" xmlns:xlink="http://www.w3.org/1999/xlink" width="478px" height="84px" viewBox="0 0 478 84"><title>apply-conf-logo-std</title><g id="apply-conf-logo-std" stroke="none" stroke-width="1" fill="none" fill-rule="evenodd"><g id="apply-conf-logo" transform="translate(-0.000000, -0.000000)"><path d="M288.75987,0 L289.536878,6.03610616 C282.595966,7.94551043 277.496361,11.9295111 274.234171,17.9896593 C270.971202,24.0513586 269.340886,31.2096858 269.340886,39.462314 C269.340886,47.7149423 270.971202,54.8732694 274.234171,60.9334176 C277.496361,66.9935658 282.595966,70.9791176 289.536878,72.8877463 L288.75987,78.9230769 C280.628531,77.0152238 274.065222,72.603895 269.068388,65.6921928 C264.070775,58.7804906 261.573137,50.0369392 261.573137,39.462314 C261.573137,28.8876889 264.070775,20.1456885 269.068388,13.2324352 C274.065222,6.32073304 280.628531,1.91017981 288.75987,0 L288.75987,0 Z M450.061561,0 C458.191343,1.91017981 464.75543,6.33391739 469.752264,13.2712127 C474.74832,20.2100592 477.248294,28.9388752 477.248294,39.462314 C477.248294,49.9849773 474.74832,58.71612 469.752264,65.6534153 C464.75543,72.5914862 458.191343,77.0152238 450.061561,78.9230769 L449.284552,72.8877463 C456.224686,70.9791176 461.324291,66.9695238 464.586481,60.8574137 C467.848671,54.742977 469.481323,47.6133452 469.481323,39.462314 C469.481323,31.3128339 467.848671,24.1801 464.586481,18.0687654 C461.324291,11.9558798 456.224686,7.94551043 449.284552,6.03610616 L450.061561,0 Z M218.087911,20.235339 L231.215306,60.1614319 L244.264844,20.235339 L252.420319,20.235339 L235.331582,68.2077639 C233.570467,73.2108373 231.176378,76.8613515 228.1462,79.1562041 C225.11758,81.4502812 221.478564,82.5996464 217.233046,82.5996464 C215.990455,82.5996464 214.773557,82.522867 213.582352,82.367757 C212.391146,82.2134225 211.174248,82.0055751 209.930879,81.7496436 L211.251326,74.8619834 C212.598245,75.1714279 213.854849,75.4040929 215.020362,75.5592029 C216.184318,75.7135374 217.259517,75.7910924 218.243624,75.7910924 C220.624478,75.7910924 222.735169,75.119466 224.574141,73.77854 C226.411556,72.4360628 227.823095,70.2978713 228.807202,67.357761 L229.039993,66.6605415 L226.166308,66.6605415 L209.62101,20.235339 L218.087911,20.235339 Z M82.1020811,19.46134 C86.7633535,19.46134 90.4521975,21.0473399 93.1701701,24.2201152 C95.8889213,27.392115 97.2490754,31.6863357 97.2490754,37.1035529 L97.2490754,49.7147725 C97.2490754,55.1839516 95.4490317,59.5029899 91.8497228,62.6765408 C88.2504139,65.8485406 83.3711431,67.4345404 77.2080176,67.4345404 C75.4484593,67.4345404 73.5970302,67.2414285 71.654509,66.854429 C69.7135449,66.466654 67.8870299,65.9385044 66.1788569,65.2684291 L66.1788569,82.1350919 L58.4111076,82.1350919 L58.4111076,20.2345634 L66.1788569,20.2345634 L66.1788569,27.9722264 L68.5075467,27.9722264 C69.8030799,25.3415606 71.6809802,23.2669642 74.140469,21.7437838 C76.5991793,20.2237057 79.2540881,19.46134 82.1020811,19.46134 L82.1020811,19.46134 Z M136.279349,19.46134 C140.940621,19.46134 144.628687,21.0473399 147.347438,24.2201152 C150.066189,27.392115 151.426343,31.6863357 151.426343,37.1035529 L151.426343,49.7147725 C151.426343,55.1839516 149.626299,59.5029899 146.026991,62.6765408 C142.427682,65.8485406 137.548411,67.4345404 131.385285,67.4345404 C129.624948,67.4345404 127.775077,67.2414285 125.831777,66.854429 C123.890813,66.466654 122.065076,65.9385044 120.356125,65.2684291 L120.356125,82.1350919 L112.588375,82.1350919 L112.588375,20.2345634 L120.356125,20.2345634 L120.356125,27.9722264 L122.685593,27.9722264 C123.979569,25.3415606 125.858248,23.2669642 128.317737,21.7437838 C130.776447,20.2237057 133.431356,19.46134 136.279349,19.46134 L136.279349,19.46134 Z M19.3403488,19.46134 C24.4672034,19.46134 28.739193,20.6122563 32.1586532,22.9125378 C35.5757778,25.2120437 37.2839508,28.7656141 37.2839508,33.5701468 L37.2839508,54.3463575 C37.2839508,57.1375622 38.0617378,58.8817743 39.6149763,59.5805449 C41.1682147,60.2777644 43.4984616,60.3677282 46.6049385,59.8519874 L46.6049385,66.893982 C43.3941338,67.357761 40.3795277,67.1375048 37.5556702,66.23554 C34.7333698,65.3343509 33.193367,62.8960215 32.9348832,58.9228785 L31.3808662,58.9228785 C29.9303984,61.2960617 27.7558646,63.307063 24.8564862,64.9589846 C21.9555507,66.6109063 18.719832,67.4337649 15.1462157,67.4337649 C11.2105665,67.4337649 7.70157119,66.3906501 4.62234413,64.3005426 C1.54078138,62.2127618 0,58.8445479 0,54.2028808 C0,50.1296918 1.33212579,46.9289967 4.00027019,44.6085509 C6.66763604,42.2873295 9.78656994,41.1278822 13.3601862,41.1278822 L29.5177586,41.1278822 L29.5177586,34.4736626 C29.5177586,31.9965557 28.6870291,30.0367407 27.03102,28.5911154 C25.3726752,27.1485923 22.8625797,26.4242285 19.4968404,26.4242285 C16.0789373,26.4242285 13.5267992,26.928336 11.845876,27.9342245 C10.1618386,28.9401129 8.82815565,31.172146 7.84560583,34.6279971 L1.01057818,32.7705547 C1.88957878,28.3863702 3.86947117,25.0716692 6.95181249,22.8272273 C10.0325967,20.5827854 14.1621088,19.46134 19.3403488,19.46134 L19.3403488,19.46134 Z M184.941258,4.76001295 L184.941258,59.697653 L200.476756,59.697653 L200.476756,66.6605415 L161.638789,66.6605415 L161.638789,59.697653 L177.173508,59.697653 L177.173508,11.723677 L161.638789,11.723677 L161.638789,4.76001295 L184.941258,4.76001295 Z M29.5177586,46.9289967 L15.5354985,46.9289967 C13.3088008,46.9289967 11.4581503,47.436982 9.98198991,48.4467482 C8.50505092,49.4596166 7.76774927,51.2348507 7.76774927,53.7763282 C7.76774927,56.0075858 8.39994456,57.7455935 9.67056366,58.9919024 C10.9388471,60.2374358 13.1001453,60.8571003 16.1560153,60.8571003 C18.8490738,60.8571003 21.3334768,60.3793615 23.6138955,59.4192305 C25.8911999,58.4590995 27.8586353,56.786238 29.5177586,54.3983194 L29.5177586,46.9289967 Z M80.1595599,26.8127791 C77.5708292,26.8127791 75.1619471,27.4580367 72.936028,28.7462254 C70.7093303,30.0367407 68.4561614,32.0997039 66.1788569,34.9382171 L66.1788569,57.6858761 C67.7827021,58.6661714 69.4519468,59.4013929 71.1889267,59.8907649 C72.9235709,60.3816881 74.9034633,60.6252109 77.1309396,60.6252109 C81.4800072,60.6252109 84.6269695,59.7480637 86.5679336,57.994545 C88.5104548,56.2425774 89.4813262,53.4288818 89.4813262,49.5604381 L89.4813262,37.0267735 C89.4813262,33.4669986 88.7432459,30.8743348 87.2678641,29.2503329 C85.7924822,27.6255555 83.4225284,26.8127791 80.1595599,26.8127791 L80.1595599,26.8127791 Z M134.336828,26.8127791 C131.748097,26.8127791 129.339215,27.4580367 127.113296,28.7462254 C124.886598,30.0367407 122.633429,32.0997039 120.356125,34.9382171 L120.356125,57.6858761 C121.95997,58.6661714 123.629215,59.4013929 125.366194,59.8907649 C127.100839,60.3816881 129.080731,60.6252109 131.308207,60.6252109 C135.657275,60.6252109 138.804237,59.7480637 140.745201,57.994545 C142.687723,56.2425774 143.659372,53.4288818 143.659372,49.5604381 L143.659372,37.0267735 C143.659372,33.4669986 142.920514,30.8743348 141.445132,29.2503329 C139.96975,27.6255555 137.599796,26.8127791 134.336828,26.8127791 L134.336828,26.8127791 Z" id="Fill-261" fill="#000000"></path><path d="M310.170909,60.6090909 C314.881212,60.6090909 318.495152,59.6548485 321.012727,57.7463636 C323.530303,55.8378788 324.931212,53.0157576 325.215455,49.28 L319.246364,48.9145455 C319.124545,50.9854545 318.312424,52.5386364 316.81,53.5740909 C315.307576,54.6095455 313.094545,55.1272727 310.170909,55.1272727 C306.800606,55.1272727 304.293182,54.4369697 302.648636,53.0563636 C301.004091,51.6757576 300.181818,49.5845455 300.181818,46.7827273 L300.181818,36.9154545 C300.181818,33.9918182 300.993939,31.8295455 302.618182,30.4286364 C304.242424,29.0277273 306.719394,28.3272727 310.049091,28.3272727 C313.013333,28.3272727 315.246667,28.9363636 316.749091,30.1545455 C318.251515,31.3727273 319.083939,33.2406061 319.246364,35.7581818 L325.215455,35.3927273 C324.931212,31.2915152 323.520152,28.175 320.982273,26.0431818 C318.444394,23.9113636 314.820303,22.8454545 310.11,22.8454545 C304.831212,22.8454545 300.841667,24.0331818 298.141364,26.4086364 C295.441061,28.7840909 294.090909,32.2863636 294.090909,36.9154545 L294.090909,46.7827273 C294.090909,51.3306061 295.441061,54.7719697 298.141364,57.1068182 C300.841667,59.4416667 304.851515,60.6090909 310.170909,60.6090909 Z M347.954545,60.6090909 C352.867879,60.6090909 356.634091,59.4213636 359.253182,57.0459091 C361.872273,54.6704545 363.181818,51.2493939 363.181818,46.7827273 L363.181818,36.9154545 C363.181818,32.4081818 361.872273,28.9363636 359.253182,26.5 C356.634091,24.0636364 352.888182,22.8454545 348.015455,22.8454545 C343.102121,22.8454545 339.325758,24.0636364 336.686364,26.5 C334.04697,28.9363636 332.727273,32.4081818 332.727273,36.9154545 L332.727273,46.7827273 C332.727273,51.2493939 334.036818,54.6704545 336.655909,57.0459091 C339.275,59.4213636 343.041212,60.6090909 347.954545,60.6090909 Z M347.954545,55.1272727 C344.868485,55.1272727 342.574242,54.4369697 341.071818,53.0563636 C339.569394,51.6757576 338.818182,49.5845455 338.818182,46.7827273 L338.818182,36.9154545 C338.818182,33.9918182 339.569394,31.8295455 341.071818,30.4286364 C342.574242,29.0277273 344.868485,28.3272727 347.954545,28.3272727 C351.040606,28.3272727 353.334848,29.0277273 354.837273,30.4286364 C356.339697,31.8295455 357.090909,33.9918182 357.090909,36.9154545 L357.090909,46.7827273 C357.090909,49.5845455 356.339697,51.6757576 354.837273,53.0563636 C353.334848,54.4369697 351.040606,55.1272727 347.954545,55.1272727 Z M378.454545,60 L378.454545,35.0272727 C380.241212,32.9563636 382.078636,31.3727273 383.966818,30.2763636 C385.855,29.18 387.712727,28.6318182 389.54,28.6318182 C391.854545,28.6318182 393.631061,29.3119697 394.869545,30.6722727 C396.10803,32.0325758 396.727273,33.9918182 396.727273,36.55 L396.727273,60 L402.818182,60 L402.818182,35.3318182 C402.818182,31.4742424 401.762424,28.4287879 399.650909,26.1954545 C397.539394,23.9621212 394.656364,22.8454545 391.001818,22.8454545 C388.565455,22.8454545 386.39303,23.4443939 384.484545,24.6422727 C382.576061,25.8401515 381.175152,27.4745455 380.281818,29.5454545 L378.454545,29.5454545 L378.454545,23.4545455 L372.363636,23.4545455 L372.363636,60 L378.454545,60 Z M426.021461,60 L426.08746,30.5406479 L437.920885,30.5406479 L437.920885,24.7628701 L426.08746,24.7628701 L426.021461,18.8493827 C426.021461,17.0518519 426.727634,15.7572016 428.13998,14.9654321 C429.552326,14.1736626 431.435453,13.7777778 433.789363,13.7777778 C435.629692,13.7777778 437.223931,13.9168724 438.572079,14.1950617 C439.920227,14.473251 441.065083,14.7621399 442.006647,15.0617284 L443.290597,9.6691358 C442.049445,9.24115226 440.647799,8.85596708 439.085659,8.51358025 C437.523519,8.17119342 435.758087,8 433.789363,8 C429.766317,8 426.395947,8.95226337 423.678252,10.8567901 C420.960556,12.7613169 419.601708,15.4469136 419.601708,18.9135802 L419.667707,24.7628701 L410.517163,24.7628701 L410.517163,30.5406479 L419.667707,30.5406479 L419.601708,60 L426.021461,60 Z" id="conf" fill="#FF894A" fill-rule="nonzero"></path></g></g></svg>